<svg xmlns="http://www.w3.org/2000/svg" xmlns:xlink="http://www.w3.org/1999/xlink" version="1.1" x="0px" y="0px" viewBox="0 0 99 99" enable-background="new 0 0 99 99" xml:space="preserve">
<path d="M49,61.5221558V78.456543H38.934082c-0.5522461,0-1,0.4477539-1,1s0.4477539,1,1,1H61.065918c0.5522461,0,1-0.4477539,1-1  s-0.4477539-1-1-1H51V61.5221558c10.2797852-0.1849365,16.317749-3.2231445,19.4775391-9.7990112  c3.112793-6.4804688,1.8554688-17.1054688,1.800293-17.5546875c-0.0615234-0.5014648-0.4873047-0.878418-0.9926758-0.878418  h-1.2103271c0.1671143-0.2142944,0.3035278-0.4318237,0.4202881-0.6240234  c0.199707-0.3295898,0.5014648-0.8276367,0.4921875-1.4599609c-0.012207-0.777832-0.5043945-1.3564453-0.6655273-1.5458984  c-0.9904175-1.1660767-2.4711914-1.8556519-3.9906616-1.9248657c0.53125-0.706665,1.104126-1.6360474,1.1161499-2.7318726  c0.0195313-1.7143555-1.425293-3.2817383-3.2895508-3.5683594c-1.7675781-0.2714844-3.3393555,0.53125-4.3457031,1.253418  c-0.4711304,0.3375854-0.8736572,0.7149658-1.2384033,1.1092529c-0.1608887-0.4679565-0.3532715-0.9118652-0.5438232-1.3192139  c-0.4921875-1.0512695-1.0996094-2.0966797-2.203125-2.6269531c-1.6953125-0.8149414-3.6860352,0.0981445-4.6289063,1.4511719  c-0.748291,1.0734253-1.064209,2.4580078-0.9786377,4.215332c-1.3091431-1.0641479-3.4031982-1.9039917-5.2972412-0.9345703  c-1.8237305,0.9345703-2.6655273,3.4282227-1.8764648,5.5585938c0.5230713,1.4129639,1.5529785,2.4290161,2.5980835,3.1479492  H28.7148438c-0.5053711,0-0.9311523,0.3769531-0.9926758,0.878418c-0.0551758,0.4492188-1.3125,11.0742188,1.800293,17.5546875  C32.682251,58.2990112,38.7202148,61.3372192,49,61.5221558z M60.421875,37.8112793  c-0.1261597-0.1721802-0.2651978-0.3228149-0.4189453-0.4436035c-0.1107178-0.086731-0.2329102-0.1422729-0.3588867-0.1741943  c0.2976685-0.3765259,0.5358276-0.7816772,0.7028809-1.1921997c3.0443726-0.2612305,6.5054321,0.6704712,7.3762207,2.0514526  c0.2080078,0.3295898,0.4101563,0.8803711-0.2363281,1.8496094c-0.3696289,0.5541992-0.8105469,0.8408203-1.3886719,0.9008789  c-1.9106522,0.2143555-4.6982422-2.0581055-5.605957-2.9462891C60.4713745,37.8365479,60.4439697,37.8294678,60.421875,37.8112793z   M58.6108398,34.4985352c0.0036621,0.0170288,0.0144043,0.0300903,0.0188599,0.0467529  c0.0023193,0.0108643-0.0010376,0.0215454,0.0016479,0.0323486c0.0449219,0.1811523-0.0893555,0.8813477-0.6889648,1.5415039  c-0.5556641,0.6108398-1.5922852,1.2836914-3.3925781,1.0146484c-1.671814-0.2495728-1.9865112-1.9077759-2.0466309-2.5808105  c0.567627-0.8671265,1.7573242-2.2629395,2.7321777-2.2629395c0,0,0,0,0.0004883,0  C57.6772461,32.2905273,58.3051758,33.0664063,58.6108398,34.4985352z M50.828186,36.1652832  c0.3897095,1.0957642,1.1638184,2.2131348,2.5514526,2.7205811c-0.6390991,0.793396-1.8710327,1.7507935-3.2824707,2.3475342  c-1.2412109,0.5253906-2.0092773,0.5029297-2.2236328,0.3603516c-0.5527344-0.3681641-1.1694336-1.6669922-0.878418-2.8637695  C47.3193359,37.3972168,48.6466064,36.5212402,50.828186,36.1652832z M55.7802734,39.1687622  c1.1298828-0.0784912,2.0081177-0.4370728,2.6553955-0.8648071c0.0338745,0.2368164,0.140625,0.4656982,0.3284912,0.6335449  c0.78125,0.6977539,1.2148438,5.1801758,0.5737305,5.9199219c-0.652832,0.7001953-1.3500977,0.9868164-1.8676758,0.7641602  C56.5935059,45.2461548,55.6652832,43.328125,55.7802734,39.1687622z M68.7978516,30.9555664  c0.1606445,0.1889648,0.1865234,0.2753906,0.1894531,0.2753906c-0.0102539,0.0805664-0.1401367,0.2954102-0.2026367,0.3979492  c-0.1411133,0.2329102-0.2871094,0.4736328-0.4360352,0.5947266c-0.1274414,0.1040039-0.3354492,0.1845703-0.5410156,0.2563477  c-0.5878296,0.2052612-1.9821167,0.600769-2.9390869,0.8100586H60.338562  c-0.0540161-0.1520386-0.1109619-0.2990112-0.1739502-0.4362183c1.5002441-0.7523193,2.8910522-1.7183228,4.1201782-2.8613892  c0.1453247-0.038269,0.4337769-0.0983887,1.0091553-0.1882324l0.1821289-0.0292969  C66.6738281,29.5522461,68.0087891,30.0268555,68.7978516,30.9555664z M59.1181641,26.5756836  c0.3857422-1.0444336,1.2236328-1.8066406,1.8588867-2.262207c0.5776367-0.4130859,1.7163086-1.0771484,2.8769531-0.9018555  c0.8569336,0.1318359,1.6015625,0.8652344,1.5932617,1.5693359c-0.0063477,0.5610352-0.4023438,1.1499023-0.7885742,1.6518555  c-0.503418,0.6531982-1.0755615,1.2478638-1.6757202,1.8132324c-0.0008545,0.0007935-0.00177,0.0015259-0.0026245,0.0023804  c-1.1968994,1.1269531-2.553894,2.0845337-4.0408936,2.7859497c-0.0143433,0.0067749-0.0227051,0.0198975-0.0365601,0.0272217  c-0.1964111-0.1468506-0.4009399-0.2748413-0.6134033-0.3813477c0.2763062-0.781311,0.3758545-1.5735474,0.4609985-2.3441162  C58.8291016,27.8286133,58.902832,27.1606445,59.1181641,26.5756836z M52.8383789,22.4467773  c0.3530273-0.5058594,1.0058594-0.9042969,1.609375-0.9042969c0.1782227,0,0.3520508,0.034668,0.5126953,0.1118164  c0.565918,0.2714844,0.9458008,1.0053711,1.2578125,1.671875c0.3505859,0.7490234,0.6938477,1.5458984,0.7109375,2.3286133  c0.0319824,1.4551392-0.593689,3.394165-1.4592896,4.6386108c-0.0783081-0.0014038-0.1573486-0.0033569-0.2335815-0.0033569  h-0.0014648c-0.3353882,0-0.6588745,0.0596924-0.9700928,0.1582642c-1.4905396-1.062439-1.9473877-3.2213745-2.0494385-4.9199829  C52.1342773,24.1723633,52.3378906,23.1645508,52.8383789,22.4467773z M45.8334961,26.3637695  c0.2714844-0.1386719,0.5688477-0.199707,0.8759766-0.199707c0.8393555,0,1.7480469,0.453125,2.375,1.0024414  c1.5229492,1.3334961,2.3095703,3.487793,2.0039063,5.4887695c-0.020874,0.1355591-0.0108643,0.2679443,0.0205688,0.3931885  c-0.0639648,0.088501-0.1223755,0.1715088-0.1748047,0.2485962c-1.1640625-0.2565308-2.1737061-0.5870361-3.0552368-1.0123901  c-1.0595703-0.5107422-2.4326172-1.4174805-2.9580078-2.8369141C44.527832,28.3857422,44.8007813,26.8930664,45.8334961,26.3637695z   M29.6210938,35.2900391H47.309082c-1.4995728,0.9209595-2.0548096,2.1345215-2.2573242,2.9672852  c-0.4985352,2.0512695,0.5004883,4.1928711,1.7124023,5.0004883c0.4599609,0.3066406,0.9995117,0.425293,1.559082,0.425293  c0.8774414-0.0004883,1.8051758-0.2915039,2.5522461-0.6074219c1.0144043-0.4287109,2.0643311-1.0690308,2.9418335-1.8087158  c0.2785034,4.3552856,1.8381348,5.7532349,2.8657837,6.1929932c0.3725586,0.159668,0.7617188,0.237793,1.1567383,0.237793  c1.0107422,0,2.059082-0.5107422,2.9599609-1.4755859c0.902832-0.9672852,0.887207-3.0615234,0.7978516-4.2241211  c-0.0137329-0.1781616-0.0419922-0.4570923-0.0836792-0.7758789c1.2520752,0.8240356,2.8268433,1.5935059,4.3473511,1.5932617  c0.1479492,0,0.2954102-0.0073242,0.4418945-0.0224609c1.1669922-0.1210938,2.1518555-0.7373047,2.8476563-1.78125  c1.253418-1.8798828,0.7036133-3.3291016,0.2641602-4.0258789c-0.4301758-0.6819458-1.1207886-1.2442627-1.9625244-1.6958008  h2.9268799c0.1387329,1.6132813,0.3543091,5.2220459-0.0375977,8.9121094h-6.0844727c-0.5522461,0-1,0.4477539-1,1s0.4477539,1,1,1  h5.8047485c-0.2897339,1.6661377-0.7266235,3.2793579-1.3872681,4.6547852  C66.6118164,55.1508789,62.7792969,59.5400391,50,59.5400391s-16.6118164-4.3891602-18.6748047-8.6831055  c-0.6602783-1.3743896-1.0968018-2.987854-1.3863525-4.6547852h18.463501c0.5522461,0,1-0.4477539,1-1s-0.4477539-1-1-1H29.6594238  C29.2680664,40.5130615,29.4827271,36.9037476,29.6210938,35.2900391z M35.25,49.5c0-0.5522461,0.4477539-1,1-1h6.875  c0.5522461,0,1,0.4477539,1,1s-0.4477539,1-1,1H36.25C35.6977539,50.5,35.25,50.0522461,35.25,49.5z M44.25,54.875h-1.125  c-0.5522461,0-1-0.4477539-1-1s0.4477539-1,1-1h1.125c0.5522461,0,1,0.4477539,1,1S44.8022461,54.875,44.25,54.875z M51.25,50.125  c0-0.5522461,0.4477539-1,1-1h3.878418c0.5522461,0,1,0.4477539,1,1s-0.4477539,1-1,1H52.25  C51.6977539,51.125,51.25,50.6772461,51.25,50.125z M49.75,54.625c0-0.5522461,0.4477539-1,1-1h2.6982422  c0.5522461,0,1,0.4477539,1,1s-0.4477539,1-1,1H50.75C50.1977539,55.625,49.75,55.1772461,49.75,54.625z M62.2524414,50.5708008  c-0.0390625-0.5507813,0.3754883-1.0292969,0.9267578-1.0683594l1.75-0.125L66.25,49.375c0.5522461,0,1,0.4477539,1,1  s-0.4477539,1-1,1H65l-1.6791992,0.1225586C63.296875,51.4990234,63.2729492,51.5,63.2490234,51.5  C62.7290039,51.5,62.2900391,51.0976563,62.2524414,50.5708008z M58.0019531,55.1879883  c0.034668-0.5517578,0.5214844-0.9702148,1.0600586-0.9360352l2,0.125L62.3051758,54.375c0.5522461,0,1,0.4477539,1,1  s-0.4477539,1-1,1H61l-2.0620117-0.1269531C58.3867188,56.2138672,57.9677734,55.7392578,58.0019531,55.1879883z M48.125,57.625  c0,0.5522461-0.4477539,1-1,1h-0.8789063c-0.0913086,0.0175781-0.184082,0.0258789-0.2758789,0.0258789  c-0.5371094,0-1.0644531-0.2866211-1.3442383-0.7705078c-0.2763672-0.4780273-0.112793-1.0898438,0.3652344-1.3662109  c0.3789063-0.2207031,0.84375-0.1616211,1.1567383,0.1108398H47.125C47.6772461,56.625,48.125,57.0727539,48.125,57.625z   M49.3637695,51.9770508c0.0761719,0.5473633-0.3051758,1.0522461-0.8520508,1.128418  c-0.1889648,0.0263672-0.3803711,0.0395508-0.5712891,0.0395508c-0.6621094,0-1.3261719-0.1557617-1.9169922-0.4550781  c-0.4926758-0.2495117-0.6894531-0.8515625-0.4399414-1.3442383c0.2495117-0.4921875,0.8505859-0.6894531,1.3442383-0.4399414  c0.3999023,0.203125,0.8637695,0.2792969,1.3076172,0.2192383C48.7827148,51.0458984,49.2880859,51.4306641,49.3637695,51.9770508z   M39.871582,53.7895508c0.0463867,0.550293-0.3623047,1.0341797-0.9125977,1.0805664  c-0.2236328,0.0185547-0.4472656,0.0283203-0.6699219,0.0283203c-0.7412109,0-1.4760742-0.1044922-2.1923828-0.3115234  c-0.5302734-0.1533203-0.8364258-0.7075195-0.6826172-1.2382813c0.152832-0.5302734,0.7055664-0.8383789,1.2382813-0.6826172  c0.6958008,0.2006836,1.4145508,0.2729492,2.1386719,0.2109375C39.3491211,52.8330078,39.8251953,53.2392578,39.871582,53.7895508z"/>
</svg>