<svg xmlns="http://www.w3.org/2000/svg" xmlns:xlink="http://www.w3.org/1999/xlink" version="1.1" x="0px" y="0px" viewBox="0 0 99 99" enable-background="new 0 0 99 99" xml:space="preserve"><path d="M69.0136719,30.1875H48.321167c-0.375-0.4342651-0.7619629-0.8512573-1.1644287-1.2290039  c-0.4023438-0.3769531-1.034668-0.3579102-1.4135742,0.0444336C45.4320679,29.3345337,45.4055786,29.8146973,45.625,30.1875  h-0.3133545c-0.4171753-0.2515869-0.9622192-0.1803589-1.2828369,0.2036133  c-0.0111084,0.0130615-1.1378784,1.3224487-4.1343384,2.053833c-0.0118408-0.0006104-0.0216675-0.0072021-0.0336304-0.0074463  c-0.1664429-0.008606-0.3192749,0.0408325-0.4608765,0.1132813c-1.9746094,0.3948364-4.5566406,0.4414673-6.3101196,0.4697266  c-0.1674805,0.0029297-0.3251953,0.0053711-0.4731445,0.0078125c0.7890625-1.097168,2.065918-2.4848633,3.6918945-3.0654297  c0.5200195-0.1860352,0.7910156-0.7583008,0.6054688-1.2783203c-0.1855469-0.5195313-0.7573242-0.7900391-1.2783203-0.6054688  c-3.5507813,1.2685547-5.8632813,5.3574219-5.8520508,6.1362305c0.0058594,0.4277344,0.2856445,0.809082,0.6923828,0.9414063  c0.0966797,0.0317383,0.1962891,0.0463867,0.2958984,0.0463867c0.1660156,0,0.3310547-0.0415039,0.4785156-0.1176758  c0.3100586-0.0400391,1.1352539-0.0532227,1.871582-0.0654297c1.5612183-0.0252075,3.7515259-0.0647583,5.7034302-0.3434448  c-0.0202026,1.9158936-0.0219116,4.477417,0.0080566,7.1494751c-0.0044556,0.0383301-0.022522,0.0718994-0.022522,0.1114502  c0,0.0447998,0.0197754,0.0830688,0.0255127,0.1263428c0.0292358,2.4567261,0.085022,4.9862061,0.1781006,7.1661377  l0.1835938,4.3364258c0.4702148,11.1523438,1.1147461,26.4257813,1.449707,28.8813477  c0.2397461,1.7597656,0.9702148,7.1147461,6.7407227,7.1147461h7.125h7.125c5.7705078,0,6.5009766-5.3549805,6.7407227-7.1147461  c0.3349609-2.4555664,0.9794922-17.7290039,1.449707-28.8813477l0.1835938-4.3364258  c0.453125-10.6171875,0.003418-18.03125-0.0009766-18.1044922C69.9790039,30.5981445,69.5419922,30.1875,69.0136719,30.1875z   M68.2114868,40.9375H53.277771c-0.5251465-2.3972168-1.3758545-5.1237183-2.7807007-7.6328125  c-0.2695313-0.4824219-0.8793945-0.6523438-1.3608398-0.3842773c-0.4819336,0.2695313-0.6542969,0.8789063-0.3842773,1.3608398  c1.2112427,2.1638794,1.9852295,4.5272217,2.4812012,6.65625H40.8248291  c-0.0223389-2.5474854-0.0166626-4.9387817,0.0058594-6.6814575c2.2289429-0.6170654,3.5460815-1.4954224,4.2069092-2.0685425  h23.0253906C68.1278687,33.6469116,68.2338257,36.7401123,68.2114868,40.9375z M67.8310547,53.4819336  c-0.4423828,10.4858398-1.1108398,26.3325195-1.4331055,28.6953125C65.8833008,85.9521484,64.4599609,87.5625,61.6386719,87.5625  h-7.125h-7.125c-2.8212891,0-4.2446289-1.6103516-4.7592773-5.3852539  c-0.3222656-2.362793-0.9907227-18.2094727-1.4331055-28.6953125l-0.1835938-4.3369141  c-0.0808716-1.8961182-0.1334839-4.0598145-0.1647949-6.2075195h10.7849121  c0.0853271,0.4993286,0.1611938,0.9824829,0.21875,1.4233398c0.065918,0.5039063,0.4956055,0.8706055,0.9902344,0.8706055  c0.043457,0,0.0869141-0.0024414,0.1308594-0.0083008c0.5478516-0.0717773,0.9335938-0.5732422,0.8623047-1.1210938  c-0.0479736-0.3673706-0.1047974-0.7575073-0.1707764-1.1645508h14.5271606  c-0.0275879,1.9020996-0.081665,3.9801636-0.1766968,6.2075195L67.8310547,53.4819336z M55.2753906,55.1635742  c1.6557617-3.1933594,1.8291016-5.6855469,1.9438477-7.3344727c0.0366211-0.5253906,0.0820313-1.1772461,0.1772461-1.3520508  c0.3105469-0.3325195,0.3574219-0.8344727,0.1118164-1.2192383c-0.25-0.3916016-0.7358398-0.5610352-1.1728516-0.40625  c-0.2275391,0.0791016-5.6103516,1.9956055-8.6713867,6.2392578c-2.105957,2.9194336-2.824707,6.1767578-3.2539063,8.1230469  c-0.1181641,0.5356445-0.2651367,1.2021484-0.3022461,1.2983398c-0.2841797,0.3271484-0.3251953,0.7998047-0.1020508,1.1713867  c0.1831055,0.3051758,0.5112305,0.4848633,0.8569336,0.4848633c0.0746956,0,0.1499023-0.0083008,0.2250977-0.0258789  C45.3925781,62.0722656,52.5820313,60.3583984,55.2753906,55.1635742z M46.3632813,59.6445313  c0.4213867-1.9111328,1.0585938-4.7998047,2.9228516-7.3837891c1.6767578-2.324707,4.2451172-3.8916016,5.9501953-4.7456055  c-0.0039063,0.0576172-0.0078125,0.1162109-0.012207,0.175293c-0.109375,1.5727539-0.2592773,3.7270508-1.7241211,6.5522461  c-1.5336914,2.9584961-5.0239258,4.6318359-7.1381836,5.4091797C46.3623047,59.6494141,46.362793,59.6469727,46.3632813,59.6445313z   M54.2509766,61.0195313c-0.2597656,0.1411133-0.4438477,0.3896484-0.5029297,0.6791992s0.0131836,0.5908203,0.1972656,0.8217773  c2.3740234,2.9868164,4.7026367,4.4970703,6.9296875,4.4970703c0.1738281,0,0.3466797-0.0092773,0.519043-0.027832  c2.9848633-0.3178711,4.4814453-3.277832,4.5439453-3.4038086c0.1748047-0.3540039,0.1254883-0.777832-0.1269531-1.081543  C62.3012695,58.2714844,56.7148438,59.6816406,54.2509766,61.0195313z M61.1708984,65.0024414  c-1.4072266,0.1450195-3.0571289-0.7944336-4.8120117-2.7260742c1.7216797-0.6269531,5.0078125-1.3520508,7.4311523,0.984375  C63.3276367,63.9013672,62.4296875,64.8735352,61.1708984,65.0024414z M58.4746094,70.6992188  c-0.1005859-0.2705078-0.3129883-0.484375-0.5825195-0.5869141c-0.1796875-0.0668945-4.4233398-1.6381836-7.5463867,0.6083984  c-1.5361328,1.1054688-2.8920898,1.8535156-3.7895508,2.3486328c-0.9731445,0.5366211-1.3374023,0.737793-1.5498047,1.1420898  c-0.5332031,1.0151367,0.7167969,1.6821289,1.1279297,1.9008789c1.0458984,0.5581055,2.4946289,1.0087891,4.0932617,1.0087891  c2.7158203,0,5.8623047-1.3027344,8.1889648-5.597168C58.5537109,71.2700195,58.5751953,70.9692383,58.4746094,70.6992188z   M51.2783203,75.0410156c-1.3544922,0.2275391-2.6171875-0.046875-3.4853516-0.3701172  c0.9306641-0.515625,2.2373047-1.2592773,3.7207031-2.3271484c1.4140625-1.0170898,3.2827148-0.9013672,4.480957-0.6723633  C54.6943359,73.6020508,53.1123047,74.7338867,51.2783203,75.0410156z M59.1469727,75.1455078  c-0.3540039-0.0732422-0.7197266,0.0517578-0.9560547,0.3251953c-0.2368164,0.2729492-0.3076172,0.652832-0.1850586,0.9931641  C58.5151367,77.8779297,59.6064453,80.25,61.1967773,80.25c1.0185547,0,2.234375-0.7993164,2.3505859-1.9462891  C63.6962891,76.8354492,62.2158203,75.7729492,59.1469727,75.1455078z M61.2602539,78.2387695  c-0.1166992-0.0839844-0.2675781-0.2705078-0.4311523-0.5214844c0.3823242,0.1699219,0.5742188,0.3149414,0.6655273,0.4023438  C61.4277344,78.1694336,61.3344727,78.2177734,61.2602539,78.2387695z M43.2314453,25.953125  c0.359375,0.4194336,0.3110352,1.0507813-0.1083984,1.4101563c-0.4194336,0.3588867-1.0512695,0.3095703-1.4101563-0.1083984  c-3.3398438-3.8969727-6.1606445-3.8305664-7.6088867-3.3999023c1.5898438,1.3710938,4.753418,2.8867188,6.6044922,3.7734375  c1.5273438,0.7314453,2.159668,1.0410156,2.4707031,1.3515625c0.390625,0.390625,0.390625,1.0239258,0.0004883,1.4145508  C42.984375,30.5898438,42.7280273,30.6875,42.472168,30.6875c-0.2446289,0-0.4892578-0.0893555-0.6811523-0.2675781  c-0.2143555-0.1577148-1.1337891-0.5986328-1.9467773-0.987793c-3.671875-1.7592773-7.0639648-3.4951172-8.2246094-5.3886719  c-0.2709961-0.4418945-0.1591797-1.0175781,0.2573242-1.3261719C31.9291992,22.6787109,37.1958008,18.9130859,43.2314453,25.953125z   M45.8046875,21.0488281c-0.015625,0.5512695-0.4956055,0.9960938-1.0273438,0.9716797  c-0.5522461-0.0151367-0.9873047-0.4750977-0.9716797-1.0273438c0.1030273-3.699707-1.6547852-6.4301758-2.793457-7.8012695  c-2.0356445,5.4458008,2.418457,9.5415039,2.4672852,9.5854492c0.4106445,0.3691406,0.4443359,1.0014648,0.0751953,1.4121094  c-0.1972656,0.2197266-0.4702148,0.331543-0.7441406,0.331543c-0.2382813,0-0.4770508-0.0844727-0.6679688-0.2563477  c-0.0644531-0.0576172-6.3813477-5.8662109-2.296875-13.3081055c0.144043-0.2631836,0.3984375-0.4472656,0.6933594-0.5019531  c0.2954102-0.0566406,0.5991211,0.0253906,0.8276367,0.2182617C41.5551758,10.8320313,45.9829102,14.640625,45.8046875,21.0488281z   M47.0209961,19.980957c2.0429688-3.184082,2.2382813-6.7773438,2.1455078-7.7851563  c-0.043457-0.4716797,0.25-0.9091797,0.703125-1.0478516c0.4521484-0.1411133,0.940918,0.0600586,1.1689453,0.4746094  c0.0449219,0.081543,4.3969727,8.2397461-2.4155273,16.2143555c-0.3588867,0.4194336-0.9897461,0.4692383-1.409668,0.1108398  s-0.4697266-0.9897461-0.1108398-1.409668c2.8608398-3.3491211,3.4770508-6.7006836,3.3447266-9.2792969  c-0.3774414,1.2299805-0.9335938,2.5415039-1.7426758,3.8022461c-2.0361328,3.171875-2.3168945,6.1826172-2.3198242,6.2128906  C46.3398438,27.7944336,45.902832,28.1875,45.3896484,28.1875c-0.0288086,0-0.0576172-0.0009766-0.0874023-0.0039063  c-0.5498047-0.0473633-0.9575195-0.5322266-0.909668-1.0825195C44.4047852,26.9584961,44.7211914,23.5639648,47.0209961,19.980957z"/></svg>