<svg xmlns="http://www.w3.org/2000/svg" xmlns:xlink="http://www.w3.org/1999/xlink" version="1.1" x="0px" y="0px" viewBox="0 0 99 99" enable-background="new 0 0 99 99" xml:space="preserve"><path d="M61.9971924,11.354248l0.9471436-3.0822754c0.1621094-0.5283203-0.1342773-1.0874023-0.6625977-1.25  c-0.5273438-0.1606445-1.0874023,0.1337891-1.2495117,0.6625977l-0.9393311,3.0568848l-20.2833252,2.9099121  c-0.4594727,0.065918-0.8134766,0.4394531-0.8540039,0.9018555c-0.0410156,0.4624023,0.2421875,0.8920898,0.6831055,1.0375977  l17.3917236,5.7310791c-0.1469727,0.1204224-0.2724609,0.2692261-0.3326416,0.4647217l-2.1834106,7.1044922H45.612793h-15.125  c-0.5522461,0-1,0.4477539-1,1c0,1.9609375-1.3549805,5.449707-3.0703125,9.8662109l-0.2993164,0.7719727  c-0.1708984,0.4394531-0.3486328,0.8837891-0.5297852,1.3339844c-1.8115234,4.5151367-3.8652344,9.6328125-1.5595703,17.4360352  c2.7919922,9.4509888,12.6033936,13.0403442,20.5839844,13.3149414v15.6900635  c-4.9425659,0.3041992-10.4735107,2.6928101-10.722168,2.8011475c-0.434082,0.1889648-0.6757813,0.6572266-0.5791016,1.1206055  c0.0966797,0.4638672,0.5053711,0.7958984,0.9790039,0.7958984H45.612793h11.3217773  c0.4736328,0,0.8823242-0.3320313,0.9790039-0.7958984c0.0966797-0.4633789-0.1450195-0.9316406-0.5791016-1.1206055  c-0.2486572-0.1083374-5.779541-2.4968872-10.7216797-2.8011475V72.6142578  c7.9801025-0.2745972,17.7910767-3.8639526,20.5839844-13.3149414c2.3051758-7.8022461,0.2524414-12.9194336-1.559082-17.434082  c-0.1811523-0.4511719-0.359375-0.8955078-0.5302734-1.3359375l-0.2949295-0.7597656  c-1.7177658-4.4228516-3.0746994-7.9155273-3.0746994-9.878418c0-0.5522461-0.4477539-1-1-1h-4.1306763l2.0027466-6.5166016  c0.0557251-0.1816406,0.0407715-0.3613892-0.0026855-0.532959l17.067627,5.6242676  c0.1030273,0.0341797,0.2084961,0.050293,0.3129883,0.050293c0.3413086,0,0.668457-0.175293,0.8535156-0.4794922  c0.2421875-0.3964844,0.1791992-0.9077148-0.1523438-1.2333984L61.9971924,11.354248z M45.612793,91.0219727h-5.190918  c1.6835938-0.4238281,3.5209961-0.75,5.190918-0.75c1.6665039,0,3.5029297,0.3261719,5.1870117,0.75H45.612793z   M65.2788086,58.7329102c-2.597168,8.7895508-12.2172852,11.9082031-19.6660156,11.9082031  c-7.4492188,0-17.0693359-3.1186523-19.6660156-11.9082031c-1.1809082-3.9974976-1.0985718-7.2533569-0.5012207-10.0849609  H45.612793c0.5522461,0,1-0.4477539,1-1s-0.4477539-1-1-1H25.9645996c0.4356079-1.4312134,0.9675293-2.7620239,1.4802246-4.0395508  c0.1835938-0.4580078,0.3647461-0.9091797,0.5375977-1.355957l0.2993164-0.7709961  c1.6118164-4.1503906,2.8364258-7.3032227,3.1357422-9.590332H45.612793h8.2869263l-4.9494019,16.1044922  c-0.1542358,0.1759644-0.2559814,0.3999634-0.2559814,0.6523438c0,0.0386963,0.0177612,0.0714722,0.0220337,0.1090088  l-5.5596313,18.09021c-0.1621094,0.5283203,0.1342773,1.0874023,0.6621094,1.25  c0.0981445,0.0297852,0.1967773,0.0444336,0.2944336,0.0444336c0.4272461,0,0.8232422-0.2768555,0.9555664-0.706543  l5.4664917-17.7871094h15.244873C66.3775635,51.4795532,66.4598999,54.7354126,65.2788086,58.7329102z M59.8081055,30.8911133  c0.2993164,2.2895508,1.5258789,5.4462891,3.1401367,9.6025391l0.2949219,0.7587891  c0.1733398,0.4472656,0.3544922,0.8994141,0.5385742,1.3574219c0.5123291,1.2770996,1.0439453,2.6074829,1.4793701,4.0380859  h-14.111145l4.8425293-15.7568359H59.8081055z M44.3134766,15.0253906l16.2011719-2.3242188l11.7182617,11.5249023  L44.3134766,15.0253906z M32.0820313,54.4384766c-0.0390625,0-0.0786133-0.0019531-0.1181641-0.0068359l-1.4985352-0.1757813  c-0.5483398-0.0644531-0.940918-0.5610352-0.8764648-1.1098633c0.0644531-0.5483398,0.5629883-0.9458008,1.1098633-0.8764648  l1.4985352,0.1757813c0.5483398,0.0644531,0.940918,0.5610352,0.8764648,1.1098633  C33.0141602,54.0639648,32.5820313,54.4384766,32.0820313,54.4384766z M42.8208008,53.4951172  c-0.5283203,0.1259766-1.0717773,0.1884766-1.6147461,0.1884766c-0.9106445,0-1.8212891-0.175293-2.6640625-0.5209961  c-0.5107422-0.2099609-0.7548828-0.7939453-0.5454102-1.3051758c0.2099609-0.5107422,0.7929688-0.7539063,1.3051758-0.5454102  c0.9599609,0.394043,2.0454102,0.4785156,3.0551758,0.237793c0.5366211-0.1259766,1.0766602,0.203125,1.2045898,0.7407227  C43.6894531,52.8276367,43.3579102,53.3671875,42.8208008,53.4951172z M33.2319336,58.4511719  c-0.4077148,0-0.7910156-0.2514648-0.9389648-0.6567383c-0.1899414-0.519043,0.0766602-1.0932617,0.5952148-1.2827148  c2.1875-0.800293,4.5712891-1.1728516,6.902832-1.0742188c0.5517578,0.0229492,0.9804688,0.4892578,0.9570313,1.0410156  c-0.0234375,0.5522461-0.5019531,0.972168-1.0410156,0.9570313c-2.0664063-0.081543-4.1879883,0.2431641-6.1313477,0.9541016  C33.4619141,58.4311523,33.3461914,58.4511719,33.2319336,58.4511719z M37.3334961,63.5834961c0,0.5522461-0.4477539,1-1,1H33.5  c-0.5522461,0-1-0.4477539-1-1s0.4477539-1,1-1h2.8334961C36.8857422,62.5834961,37.3334961,63.03125,37.3334961,63.5834961z   M29.3569336,57.9936523c0.1884766,0.519043-0.0800781,1.0927734-0.5991211,1.2807617l-0.9150391,0.3330078  c-0.112793,0.0415039-0.2285156,0.0610352-0.3422852,0.0610352c-0.4082031,0-0.7919922-0.2524414-0.9394531-0.6582031  c-0.1889648-0.519043,0.078125-1.0927734,0.597168-1.2817383l0.9179688-0.3339844  C28.5942383,57.2070313,29.168457,57.4741211,29.3569336,57.9936523z M42.4116211,61.6806641  c-0.0507813,0.5498047-0.5361328,0.9555664-1.0878906,0.9033203c-0.6694336-0.0620117-1.340332-0.0097656-1.9916992,0.1538086  c-0.0820313,0.0205078-0.1640625,0.0302734-0.2451172,0.0302734c-0.4472656,0-0.8544922-0.3022461-0.96875-0.7558594  c-0.1347656-0.5356445,0.1899414-1.0791016,0.7255859-1.2138672c0.8725586-0.2192383,1.7700195-0.2885742,2.6645508-0.2055664  C42.0581055,60.6435547,42.4628906,61.1308594,42.4116211,61.6806641z M64.5751953,56.4169922  c-1.9570313,0.4726563-3.9863281,0.7104492-6.0127068,0.7104492c-1.5126839,0-3.0239143-0.1323242-4.5034065-0.3979492  c-0.543457-0.0976563-0.9052734-0.6176758-0.8076172-1.1611328c0.097168-0.5439453,0.6157227-0.9067383,1.1611328-0.8076172  c3.1904297,0.5727539,6.5415039,0.4731445,9.6928711-0.2880859c0.5341797-0.1293945,1.0766602,0.2001953,1.2070236,0.7373047  C65.4418945,55.746582,65.1123047,56.2871094,64.5751953,56.4169922z M53.6674805,51.7045898  c0.0244141-0.5517578,0.5063477-0.9731445,1.0429688-0.9550781c0.9648438,0.0439453,1.9375-0.0092773,2.890625-0.1533203  c0.5439453-0.0820313,1.0556641,0.293457,1.1381836,0.8393555s-0.2929688,1.0556641-0.8393555,1.1381836  c-0.8359375,0.1264648-1.6855469,0.1904297-2.5336914,0.1904297c-0.2480469,0-0.4960938-0.0058594-0.7436523-0.0166016  C54.0708008,52.7231445,53.6430664,52.2563477,53.6674805,51.7045898z M49.96875,59.4291992l1.7460938-0.2021484  c0.5517578-0.0668945,1.0454102,0.3300781,1.1083984,0.8779297c0.0634766,0.5488281-0.3295898,1.0449219-0.8779297,1.1083984  l-1.7460938,0.2021484c-0.0390625,0.0048828-0.078125,0.0068359-0.1166992,0.0068359  c-0.5004883,0-0.9331055-0.3754883-0.9916992-0.8847656C49.0273438,59.9887695,49.4204102,59.4926758,49.96875,59.4291992z   M60.640625,62.0229492c0.1274414,0.5375977-0.2050781,1.0761719-0.7426758,1.2036133  c-0.3427734,0.0810547-0.6914063,0.121582-1.0424805,0.121582c-0.1513672,0-0.3032227-0.0073242-0.4545898-0.0224609  c-0.5498047-0.0551758-0.9506836-0.5454102-0.8955078-1.0947266s0.546875-0.9467773,1.0947266-0.8955078  c0.2807617,0.027832,0.5629883,0.0097656,0.8369141-0.0551758C59.9711914,61.1552734,60.5126953,61.4848633,60.640625,62.0229492z   M48.9165039,55.6665039c0-0.5522461,0.4477539-1,1-1h0.6669922c0.5522461,0,1,0.4477539,1,1s-0.4477539,1-1,1h-0.6669922  C49.3642578,56.6665039,48.9165039,56.21875,48.9165039,55.6665039z M53.0712891,65.5112305  c0.0859375,0.5454102-0.2871094,1.0576172-0.8325195,1.1430664c-0.7060547,0.1108398-1.4272461,0.1713867-2.1445313,0.1791992  c-0.003418,0-0.0073242,0-0.0107422,0c-0.5473633,0-0.9941406-0.4404297-1-0.9892578  c-0.0058594-0.5522461,0.4370117-1.0043945,0.9892578-1.0107422c0.6206055-0.0068359,1.2446289-0.059082,1.8554688-0.1547852  C52.4750977,64.5932617,52.9853516,64.965332,53.0712891,65.5112305z M48.4399414,68.7421875  c0.1801758,0.5219727-0.097168,1.0913086-0.6191406,1.2714844l-0.7470703,0.2578125  c-0.1079102,0.0371094-0.2182617,0.0551758-0.3261719,0.0551758c-0.4145508,0-0.8022461-0.2602539-0.9453125-0.6743164  c-0.1801758-0.5219727,0.097168-1.0913086,0.6191406-1.2714844l0.7470703-0.2578125  C47.6923828,67.9438477,48.2597656,68.2202148,48.4399414,68.7421875z M41.25,68c0,0.5522461-0.4477539,1-1,1h-0.9165039  c-0.5522461,0-1-0.4477539-1-1s0.4477539-1,1-1H40.25C40.8022461,67,41.25,67.4477539,41.25,68z"/>
</svg>