<svg xmlns="http://www.w3.org/2000/svg" data-name="Layer 1" viewBox="0 0 512 512" x="0px" y="0px">
<title>Cocktail</title>
<path fill="#F97FD7" d="M209.866,207l-5.449-9.74a6,6,0,0,0-10.473,5.86l5.45,9.74A6,6,0,1,0,209.866,207Z"/>
<path fill="#F97FD7" d="M218.905,223.118a6,6,0,1,0-10.47,5.864l19.79,35.33a6,6,0,1,0,10.47-5.864Z"/>
<path fill="#F97FD7" d="M106.325,40.243l63.049-14.727,17.607,57.16-80.163-.106h-.008a6,6,0,0,0-6,6v.31a6,6,0,0,0,.766,2.932l122.254,218.2V460.043c-19.794,1.491-47.14,5.985-47.14,19.417,0,7.145,7.323,12.328,22.387,15.842,11.88,2.772,27.586,4.3,44.223,4.3s32.335-1.526,44.215-4.3c15.063-3.515,22.385-8.7,22.385-15.842,0-13.432-27.346-17.926-47.14-19.417V307.6l80.7-143.541A75.161,75.161,0,1,0,263,82.777l-63.457-.084L179.194,16.634a6,6,0,0,0-7.1-4.077l-68.5,16a6,6,0,0,0,2.73,11.686ZM296.778,479.477c-5.362,3.283-23.7,8.123-53.478,8.123s-48.125-4.84-53.488-8.123c3.807-2.285,14.608-5.829,34.04-7.4a5.988,5.988,0,0,0,4.077,5.421,48.491,48.491,0,0,0,30.732,0,5.99,5.99,0,0,0,4.077-5.421C282.17,473.648,292.971,477.192,296.778,479.477ZM235.83,467.229V330.583a10.009,10.009,0,0,0,14.286-.762,5.965,5.965,0,0,0,.644-.908V467.229A36.629,36.629,0,0,1,235.83,467.229ZM337.87,25.94a63.173,63.173,0,0,1,12.959,125l4.431-7.882a56.656,56.656,0,0,0,39.222-50.749c.059-1.137.088-2.184.088-3.2a56.7,56.7,0,0,0-56.7-56.7c-.726,0-1.452.012-2.107.044A56.682,56.682,0,0,0,281.529,82.8l-6.5-.008A63.315,63.315,0,0,1,337.87,25.94Zm35.484,35.99a44.193,44.193,0,0,1,8.916,22.11,5.992,5.992,0,0,0-3.453-1.11L352.383,82.9ZM342,76.307V44.6a44.255,44.255,0,0,1,22.845,8.866ZM380.594,98h1.089a44.475,44.475,0,0,1-8.717,18.785l-1.879-1.876ZM310.072,54.115a44.323,44.323,0,0,1,19.928-9V74.958Zm10.874,28.739-27.329-.037a44.325,44.325,0,0,1,8.132-20.043Zm47.611,12.063L334.942,154.71l-.909-.667c-5.9-4.353-12.594-9.286-25.585-9.3h-.008a6,6,0,0,0-.008,12c9.055.012,13.214,3.079,18.48,6.962q1.035.764,2.112,1.535L251.24,303.6h0L242.6,318.967,158.328,168.554a36.457,36.457,0,0,0,17.863,4.216h.077c12.938,0,19.627-4.905,25.529-9.234a38.623,38.623,0,0,1,8.5-5.16l18.415,59.78a6,6,0,1,0,11.469-3.532l-17.848-57.938c7.655.445,11.575,3.321,16.423,6.895,5.9,4.35,12.59,9.281,25.572,9.3h.069c12.941,0,19.632-4.9,25.535-9.23l.783-.573a6,6,0,0,0-7.072-9.695l-.805.59c-5.265,3.859-9.425,6.908-18.44,6.908h-.054c-9.046-.012-13.2-3.077-18.467-6.958-5.9-4.352-12.593-9.284-25.591-9.3-.567,0-1.118.012-1.661.029L203.242,94.7Zm-161.8,51.945a47.486,47.486,0,0,0-12.054,7c-5.263,3.86-9.422,6.911-18.43,6.911h-.06c-9.05-.015-13.21-3.08-18.476-6.961a49.016,49.016,0,0,0-11.36-6.771c-.054-.042-.113-.078-.167-.118L116.883,94.583l73.8.1Z"/>
</svg>