<svg xmlns="http://www.w3.org/2000/svg" xmlns:xlink="http://www.w3.org/1999/xlink" version="1.1" x="0px" y="0px" viewBox="0 0 99 99" enable-background="new 0 0 99 99" xml:space="preserve"><path d="M68.0664063,68.2954102c0.4902344-6.1323242,5.5615234-35.203125,5.6132813-35.4960938  c0.0507813-0.2905273-0.0302734-0.5893555-0.2197266-0.8154297c-0.1904297-0.2260742-0.4707031-0.3564453-0.765625-0.3564453  H55.4458008c1.717041-1.0997925,2.8518066-1.9441528,3.8510742-2.6884766c1.4375-1.0712891,2.6796875-1.9960938,5.2265625-3.3452148  c0.4433594-0.2348633,0.6445313-0.762207,0.4697266-1.2324219s-0.6679688-0.7407227-1.1611328-0.6259766  c-2.5107422,0.574707-6.1386719,1.6845703-8.7871094,2.4946289c-0.2740479,0.0838013-0.5380859,0.1644897-0.7962646,0.2432251  c1.8067627-3.1741333,2.244751-7.0999146,1.0325928-10.5698853c-0.1220703-0.3476563-0.4248047-0.6000977-0.7880859-0.6577148  c-0.3681641-0.0585938-0.7294922,0.0898438-0.953125,0.3833008c-0.9560547,1.2607422-1.8076172,2.6166992-2.6318359,3.9277344  c-0.6035156,0.9603271-1.1904297,1.8933105-1.8078613,2.7830811c-0.0911865-4.2518921-1.6552734-8.4780273-4.5847168-11.6131592  c-0.2607422-0.2792969-0.6601563-0.3867188-1.0224609-0.2734375c-0.3662109,0.1113281-0.6357422,0.4213867-0.6953125,0.7988281  c-0.2060547,1.2915039-0.671875,2.6850586-1.2119141,4.2993164c-0.4106445,1.2279663-0.8537598,2.5769043-1.2335205,4.0340576  c-1.1834717-1.4051514-2.5717773-2.6031494-4.1209717-3.5003662c-0.3847656-0.2226563-0.8681641-0.1645508-1.1914063,0.1416016  c-0.3212891,0.3066406-0.4023438,0.7885742-0.1972656,1.1831055c0.5273438,1.0205078,0.8066406,2.1679688,0.8056641,3.3188477  c0,0.1660156-0.0058594,0.3325195-0.0107422,0.4990234c-0.0136719,0.4052734-0.0263672,0.8242188,0.0244141,1.2695313  c0.1171875,1.0341797,0.5585938,1.949707,0.9492188,2.7583008l0.2785645,0.5755615  c-1.5039063-0.838501-3.0185547-1.1303711-4.4924316-1.4046631c-1.5869141-0.2954102-3.0849609-0.5742188-4.5371094-1.5424805  c-0.3925781-0.262207-0.9189453-0.2128906-1.2578125,0.1210938c-0.3378906,0.3334961-0.3935547,0.8583984-0.1347656,1.2563477  c1.6123047,2.4780273,3.3105469,3.5200195,5.6611328,4.9628906l0.1533203,0.09375  c0.9560547,0.5874023,1.6679688,1.284668,2.421875,2.0234375c0.0969238,0.0947876,0.1967773,0.1906738,0.2949219,0.2861328  h-0.8046875c-0.2949219,0-0.5751953,0.1303711-0.765625,0.3564453c-0.1894531,0.2260742-0.2705078,0.5249023-0.2197266,0.8154297  c0.0517578,0.2929688,5.1230469,29.3637695,5.6132813,35.4960938c0.3769531,4.7148438,0.1796875,10.4765625,0.0615234,13.9194336  c-0.0361328,1.0678711-0.0644531,1.8959961-0.0644531,2.3759766c0,3.3178711,1.640625,5,4.875,5h19.5  c3.234375,0,4.875-1.6821289,4.875-5c0-0.4799805-0.0283203-1.3081055-0.0644531-2.3759766  C67.8867188,78.7719727,67.6894531,73.0102539,68.0664063,68.2954102z M70.0126953,42.3476563H57.3725586  c-0.0427246-1.277771-0.1286621-2.2435303-0.2084961-2.5620117c-0.1523438-0.6108398-0.6679688-1.065918-1.5332031-1.3535156  c-2.8300781-0.9404297-11.3027344-0.4370117-12.7666016,0.7587891c-0.6027832,0.4918213-0.8825684,1.5300293-0.9233398,3.1567383  h-5.0649414c-0.6496582-3.8455811-1.204834-7.0628052-1.4921875-8.7202148h12.7194824  c0.0009766,0,0.0020752,0.0004883,0.0031738,0.0004883c0.0009766,0,0.001709-0.0004883,0.0026855-0.0004883H51.21875h0.0048828  h20.28125C71.2175293,35.2848511,70.6623535,38.5020752,70.0126953,42.3476563z M43.9228516,42.3476563  c0.0097656-0.758606,0.076416-1.3474121,0.2333984-1.621582c1.3505859-0.7680664,9.7021484-1.1679688,11.1015625-0.3012695  c0.0799561,0.4215698,0.1281738,1.105835,0.1491699,1.9228516H43.9228516z M55.4077148,44.3476563  c-0.0637207,2.9586792-0.387207,6.4472046-0.9331055,7.1787109c-1.5869141,0.6523438-7.5673828,1.7905273-9.3359375,0.7998047  c-0.2441406-0.137207-0.2578125-0.2426758-0.2646484-0.2993164c-0.0449219-0.3505859-0.1025391-0.7753906-0.1679688-1.253418  c-0.1755371-1.286377-0.5561523-4.0817261-0.7143555-6.4257813H55.4077148z M55.6298828,28.1425781  c0.7226563-0.2211914,1.5205078-0.465332,2.3466797-0.7138672c-0.9482422,0.7055664-2.0322266,1.5068359-3.6357422,2.5317383  c-0.2548828,0.1630859-0.5136719,0.3447266-0.7763672,0.5292969c-0.7939453,0.5576172-1.6152344,1.1342773-2.3505859,1.1376953  h-0.6904297c0.151123-0.2428589,0.2902832-0.4855957,0.4208984-0.7148438c0.09375-0.1650391,0.1855469-0.3266602,0.2783203-0.480957  c0.2692871-0.4487305,0.6445313-0.8617554,1.0429688-1.2929077C52.9310303,28.9675293,54.0986328,28.6109619,55.6298828,28.1425781z   M52.6015625,20.6201172c0.4169922-0.6630859,0.8417969-1.3383789,1.2792969-2.0009766  c0.4013672,3.0170898-0.4941406,6.1889648-2.4960938,8.5097656c-0.1689453,0.1962891-0.3447266,0.3867188-0.5214844,0.5776367  c-0.4736328,0.5131836-0.9638672,1.0439453-1.3544922,1.6948242c-0.1005859,0.1665039-0.2011719,0.3422852-0.3027344,0.5214844  c-0.3850098,0.675293-0.8181152,1.4277954-1.3271484,1.7045898H46.671875  c0.128418-0.1992188,0.2441406-0.3967285,0.3476563-0.5830078c0.8879395-1.6018677,1.4882813-3.3366089,1.8116455-5.1213989  C50.2873535,24.2849731,51.4669189,22.4266968,52.6015625,20.6201172z M43.4824219,16.1855469  c0.2939453-0.8798828,0.5800781-1.7329102,0.8164063-2.5615234c3.3339844,4.7319336,3.7978516,11.3520508,0.9707031,16.4506836  c-0.2651367,0.4793091-0.5938721,0.9829712-1.0136719,1.3005981c0.0181885-0.0558472,0.0324707-0.104248,0.0517578-0.1619263  c0.2519531-0.7592773,0.2070313-1.5219727,0.1220703-2.2333984c-0.3129883-2.5891724-1.2023926-5.0687256-2.5231934-7.2335205  C42.3135986,19.7072144,42.9293213,17.8388672,43.4824219,16.1855469z M42.4433594,29.2192383  c0.0576172,0.4804688,0.09375,0.9785156-0.0585938,1.4370117c-0.0681152,0.203064-0.1796875,0.5548706-0.2043457,0.9382324  c-0.3635254-0.6547852-0.7666016-1.3140869-1.2302246-1.9653931l-2.5380859-5.2438354  c-0.3359375-0.6967773-0.6845703-1.4174805-0.7636719-2.1142578c-0.0341797-0.300293-0.0234375-0.6303711-0.0117188-0.9790039  c0.0058594-0.1879883,0.0117188-0.3759766,0.0117188-0.5625c0-0.3945313-0.0253906-0.7885742-0.0751953-1.1796875  C40.1923828,21.9658203,41.9892578,25.4633789,42.4433594,29.2192383z M36.1035156,29.9121094  c-0.7998047-0.7832031-1.6259766-1.5932617-2.7744141-2.2983398l-0.1542969-0.0947266  c-0.7695313-0.472168-1.4365234-0.8813477-2.0351563-1.296875c0.2988281,0.0600586,0.5957031,0.1152344,0.8916016,0.1704102  c1.6640625,0.3095703,3.2363281,0.6025391,4.7060547,1.7114258c0.9460449,0.7138672,1.7387695,1.524353,2.4926758,2.5626221  l0.4650879,0.9608154h-1.635376C37.3259277,31.0995483,36.7265625,30.5227661,36.1035156,29.9121094z M37.2127686,44.3476563  h4.7745361c0.1062012,1.770813,0.3673096,3.9880981,0.7373047,6.6962891  c0.0634766,0.4716797,0.1210938,0.890625,0.1650391,1.2358398c0.0673828,0.5292969,0.3427734,1.2695313,1.2695313,1.7900391  c0.8183594,0.4599609,2.0146484,0.6318359,3.328125,0.6318359c3.1826172,0,7.0517578-1.0117188,7.8886719-1.3852539  c1.567627-0.7004395,1.9969482-5.3005981,2.0223389-8.96875h12.2775879  c-1.4945068,8.9051514-3.3112793,20.1369019-3.6036377,23.7885742c-0.1789551,2.2407227-0.2290039,4.6932983-0.2224121,7.0318604  c-2.157959,0.1710815-7.7773438,0.5784912-12.4055176,0.5784912c-4.625,0-10.2446289-0.4071045-12.4055176-0.5783081  c0.0065918-2.3386841-0.043457-4.7912598-0.2224121-7.0320435C40.5240479,64.4845581,38.7072754,53.2528076,37.2127686,44.3476563z   M63.1943359,87.5908203h-19.5c-2.4169922,0-2.875-1.0541992-2.875-3c0-0.4663086,0.0283203-1.2700195,0.0634766-2.3076172  c0.0477295-1.3961182,0.1069336-3.1760254,0.1376953-5.1101074c2.284668,0.1793213,7.8283691,0.5734863,12.4238281,0.5734863  c4.597168,0,10.1416016-0.3944092,12.4238281-0.5736694c0.0307617,1.9341431,0.0899658,3.7141113,0.1376953,5.1102905  c0.0351563,1.0375977,0.0634766,1.8413086,0.0634766,2.3076172C66.0693359,86.5366211,65.6113281,87.5908203,63.1943359,87.5908203z   M50.1357422,72.1621094c0.2294922,0.3383789,0.6933594,0.7626953,1.6054688,0.8652344  c0.1396484,0.015625,0.2871094,0.0229492,0.4414063,0.0229492c2.9511719,0,8.4394531-2.7509766,9.9970703-4.2084961  c1.8505859-1.7319336,0.2041016-7.0258789-1.2373047-9.5029297c-0.9960938-1.7094727-2.0244141-2.4135742-3.0537109-2.090332  c-1.2265625,0.3823242-9.4707031,3.543457-10.3154297,4.3339844C45.3681641,63.644043,49.5878906,71.3525391,50.1357422,72.1621094z   M48.953125,63.0419922c0.9599609-0.5932617,7.3388672-3.1708984,9.3857422-3.8378906  c0.6230469,0.4101563,2.0224609,2.9165039,2.5351563,5.7265625c0.3037109,1.6694336,0.0517578,2.3452148-0.0615234,2.4506836  c-1.8662109,1.7475586-8.0498047,4.2080078-9.0205078,3.659668C50.4003906,68.9863281,48.5380859,64.0200195,48.953125,63.0419922z   M59.5820313,49.8193359c-0.0214844-0.5517578,0.4091797-1.0166016,0.9609375-1.0375977l3.0019531-0.1142578  c0.5332031-0.0219727,1.015625,0.4091797,1.0371094,0.9614258c0.0214844,0.5517578-0.4091797,1.0161133-0.9609375,1.0375977  l-3.0019531,0.1142578C60.6064453,50.78125,60.5927734,50.78125,60.5800781,50.78125  C60.0458984,50.78125,59.6025391,50.3583984,59.5820313,49.8193359z M48.9179688,47.9614258  c-0.0214844-0.5517578,0.4082031-1.0166016,0.9599609-1.0380859c0.4140625-0.0166016,0.8310547-0.0698242,1.2392578-0.1591797  c0.5439453-0.1201172,1.0732422,0.2241211,1.1904297,0.7636719c0.1181641,0.5395508-0.2236328,1.0722656-0.7626953,1.1904297  c-0.5234375,0.1142578-1.0576172,0.1826172-1.5888672,0.203125c-0.0136719,0.0004883-0.0263672,0.0009766-0.0400391,0.0009766  C49.3818359,48.9223633,48.9384766,48.5,48.9179688,47.9614258z M43.3964844,59.6831055  c-0.1787109-0.5224609,0.1005859-1.0908203,0.6230469-1.2695313c0.9257813-0.3164063,1.8916016-0.4902344,2.8701172-0.515625  c0.0087891-0.0004883,0.0175781-0.0004883,0.0273438-0.0004883c0.5400391,0,0.984375,0.4306641,0.9990234,0.9736328  c0.0136719,0.5522461-0.421875,1.0117188-0.9736328,1.0258789c-0.7763672,0.0205078-1.5419922,0.1582031-2.2763672,0.4091797  c-0.1074219,0.0366211-0.2158203,0.0541992-0.3232422,0.0541992C43.9267578,60.3603516,43.5380859,60.0986328,43.3964844,59.6831055  z M40.8369141,52.0751953c-0.125,0-0.2519531-0.0239258-0.375-0.0737305l-0.8320313-0.3369141  c-0.5126953-0.2070313-0.7587891-0.7900391-0.5517578-1.3022461c0.2070313-0.5117188,0.7900391-0.7592773,1.3017578-0.5512695  l0.8320313,0.3369141c0.5126953,0.2070313,0.7587891,0.7900391,0.5517578,1.3022461  C41.6064453,51.8388672,41.2314453,52.0751953,40.8369141,52.0751953z M42.6425781,70.4125977  c0.1865234-0.519043,0.7636719-0.7880859,1.2792969-0.6015625c0.0878906,0.0322266,0.1875,0.043457,0.2783203,0.0302734  c0.5507813-0.0732422,1.0507813,0.3110352,1.1240234,0.8588867c0.0732422,0.5473633-0.3115234,1.050293-0.8583984,1.1235352  c-0.1132813,0.0151367-0.2265625,0.0224609-0.3408203,0.0224609c-0.2998047,0-0.5986328-0.0517578-0.8808594-0.1533203  C42.7246094,71.5053711,42.4550781,70.9321289,42.6425781,70.4125977z M63.5830078,57.5351563l-0.9951172,0.3486328  c-0.109375,0.0380859-0.2207031,0.0566406-0.3300781,0.0566406c-0.4130859,0-0.7998047-0.2583008-0.9443359-0.6699219  c-0.1816406-0.5214844,0.0927734-1.0917969,0.6142578-1.2744141l0.9951172-0.3486328  c0.5244141-0.1806641,1.0917969,0.0932617,1.2744141,0.6132813C64.3789063,56.7822266,64.1044922,57.3525391,63.5830078,57.5351563z   M64.7861328,72.590332c0.2714844,0.4814453,0.1005859,1.0908203-0.3808594,1.3618164  c-0.546875,0.3076172-1.1816406,0.4716797-1.8115234,0.4716797c-0.0820313,0-0.1640625-0.0024414-0.2451172-0.0083008  c-0.5517578-0.0380859-0.9667969-0.5151367-0.9296875-1.0664063c0.0380859-0.5507813,0.5292969-0.9677734,1.0664063-0.9287109  c0.3251953,0.0219727,0.6572266-0.0527344,0.9394531-0.2114258C63.9082031,71.9384766,64.515625,72.1083984,64.7861328,72.590332z"/></svg>