<svg xmlns="http://www.w3.org/2000/svg" xmlns:xlink="http://www.w3.org/1999/xlink" version="1.1" x="0px" y="0px" viewBox="0 0 99 99" enable-background="new 0 0 99 99" xml:space="preserve"><path d="M76.7558594,36.612793H62.0465088l3.5042725-6.8261719c0.0643311,0.0036011,0.1254272,0.0161133,0.190918,0.0161133  c1.6396484,0,3.6162109-1.1162109,4.644043-2.7763672c0.9365234-1.512207,1.2832031-3.2480469,0.9277344-4.6430664  c-0.1789551-0.7026978-0.5430908-1.3001709-1.0469971-1.7828369l1.7423096-3.3939209  c0.2524414-0.4912109,0.0585938-1.09375-0.4331055-1.3461914c-0.4907227-0.253418-1.09375-0.0571289-1.3461914,0.4331055  l-1.7008057,3.3130493c-0.8258057-0.2440796-1.6741333-0.2310791-2.4984131,0.0653687  c-1.5297852,0.550293-2.8037109,1.9912109-3.5874023,4.0571289c-0.5561523,1.4667969-0.5703125,2.7680664-0.0405273,3.8666992  c0.3338623,0.6934814,0.8212891,1.1697998,1.262207,1.486084l-3.8660889,7.5310059H50H23.2441406  c-0.4042969,0-0.769043,0.2436523-0.9238281,0.6171875c-0.1547852,0.3740234-0.0693359,0.8037109,0.2167969,1.0898438  l10.8550415,10.8552246c0.0006714,0.0006714,0.0014648,0.0014648,0.0014648,0.0014648L49,64.7832031v14.7414551  c-6.2501831,0.2472534-13.3861084,2.6710815-13.7026367,2.779541c-0.4624023,0.1586914-0.7421875,0.628418-0.6616211,1.1103516  S35.1333008,84.25,35.6220703,84.25H50h14.3779297c0.4887695,0,0.9057617-0.3535156,0.9863281-0.8354492  s-0.1992188-0.9516602-0.6616211-1.1103516C64.3861084,82.1957397,57.2501831,79.7719116,51,79.5246582V64.7832031  l15.6057129-15.6060181c0,0,0.0014648-0.0014648,0.0021362-0.0021362l10.8550415-10.8552246  c0.2861328-0.2861328,0.371582-0.7158203,0.2167969-1.0898438C77.5249023,36.8564453,77.1601563,36.612793,76.7558594,36.612793z   M64.3129883,24.4379883c0.5644531-1.4882813,1.4375-2.5400391,2.3945313-2.8842773  c0.2270508-0.081543,0.4555664-0.1220703,0.6850586-0.1220703c0.3696289,0,0.7416992,0.1054688,1.1123047,0.3164063  c0.4584961,0.2612305,0.7431641,0.6303711,0.8706055,1.1289063c0.2172852,0.8530273-0.0537109,2.0688477-0.6899414,3.0966797  c-0.8945313,1.4448242-2.7006836,2.0234375-3.3017578,1.7729492c-0.0253906-0.0107422-0.0517578-0.0205078-0.078125-0.0288086  c-0.0078125-0.0024414-0.7543945-0.2695313-1.1015625-0.9897461C63.921875,26.1425781,63.9584961,25.3720703,64.3129883,24.4379883z   M50,38.612793h8.7717896L48.6044922,58.418457c-0.2524414,0.4912109-0.0585938,1.09375,0.4331055,1.3461914  C49.1835938,59.8398438,49.3398438,59.875,49.4931641,59.875c0.3632813,0,0.7133789-0.1982422,0.890625-0.543457  l5.0628662-9.8623047h8.0388794L50,62.9550781L36.5144653,49.4692383h14.354187c0.5522461,0,1-0.4477539,1-1s-0.4477539-1-1-1  h-16.354187l-8.8562622-8.8564453H50z M50,82.25h-6.6450195C45.5097656,81.8251953,47.859375,81.5,50,81.5  c2.1381836,0,4.4868164,0.3251953,6.6416016,0.75H50z M65.4855347,47.4692383h-9.012207l4.5465088-8.8564453h13.3219604  L65.4855347,47.4692383z M45.6147461,52.9550781C45.5429688,53.453125,45.1152344,53.8125,44.6264648,53.8125  c-0.0478516,0-0.0957031-0.003418-0.144043-0.0102539l-0.4375-0.0625c-0.5463867-0.0786133-0.9257813-0.5854492-0.847168-1.1323242  c0.0786133-0.5463867,0.59375-0.9208984,1.1323242-0.847168l0.4375,0.0625  C45.3139648,51.9013672,45.6933594,52.4082031,45.6147461,52.9550781z M50.1113281,51.4926758  c0.2119141,0.5097656-0.0297852,1.0952148-0.5395508,1.3071289c-0.3354492,0.1396484-0.6958008,0.2109375-1.0585938,0.2109375  c-0.1049805,0-0.2104492-0.0063477-0.3154297-0.0185547c-0.5488281-0.0629883-0.9418945-0.559082-0.878418-1.1079102  s0.5654297-0.9482422,1.1079102-0.878418c0.1259766,0.0136719,0.2607422-0.0048828,0.3769531-0.0527344  C49.315918,50.7416992,49.8994141,50.9829102,50.1113281,51.4926758z M48.1625977,56.3398438  c0.125,0.5375977-0.2094727,1.0751953-0.7475586,1.2006836l-0.8120117,0.1889648  c-0.0761719,0.0175781-0.1523438,0.0258789-0.2275391,0.0258789c-0.4541016,0-0.8657227-0.3115234-0.9731445-0.7734375  c-0.125-0.5375977,0.2094727-1.0751953,0.7475586-1.2006836l0.8120117-0.1889648  C47.5,55.4682617,48.0366211,55.8017578,48.1625977,56.3398438z M55.2202148,53.3759766  c-0.3457031-0.4306641-0.2768555-1.0600586,0.1538086-1.4057617l0.3125-0.25  c0.4301758-0.3461914,1.0595703-0.2768555,1.4057617,0.1538086c0.3457031,0.4306641,0.2768555,1.0600586-0.1538086,1.4057617  l-0.3125,0.25C56.4414063,53.6782227,56.2202148,53.75,56.0004883,53.75  C55.7080078,53.75,55.4179688,53.6220703,55.2202148,53.3759766z M53.25,56.5625c0-0.5522461,0.4477539-1,1-1h0.5  c0.5522461,0,1,0.4477539,1,1s-0.4477539,1-1,1h-0.5C53.6977539,57.5625,53.25,57.1147461,53.25,56.5625z M57.6435547,51.3945313  c-0.2177734-0.5073242,0.0170898-1.0957031,0.5244141-1.3134766c0.3237305-0.1386719,0.6816406-0.2114258,1.0307617-0.2060547  c0.5522461,0.0063477,0.9951172,0.4589844,0.9887619,1.0112305C60.1811523,51.4345703,59.7348633,51.875,59.1879883,51.875  c-0.0058594-0.0004883-0.0117188-0.0009766-0.0175781,0c-0.0727539,0-0.1464844,0.0151367-0.2133789,0.0439453  c-0.128418,0.0551758-0.2626953,0.081543-0.394043,0.081543C58.175293,52.0004883,57.8061523,51.7734375,57.6435547,51.3945313z   M42.5083008,51.4511719c-0.1362305,0.4238281-0.5292969,0.6943359-0.9521484,0.6943359  c-0.1010742,0-0.2041016-0.015625-0.3061523-0.0483398l-0.8647461-0.2773438  c-0.5258789-0.168457-0.815918-0.730957-0.6479492-1.2573242c0.1689453-0.5268555,0.730957-0.8164063,1.2573242-0.6479492  l0.8676758,0.2783203C42.3881836,50.3618164,42.6772461,50.925293,42.5083008,51.4511719z"/>
</svg>